<?xml version="1.0" encoding="iso-8859-1"?>
<!-- Generator: Adobe Illustrator 18.1.1, SVG Export Plug-In . SVG Version: 6.00 Build 0)  -->
<svg version="1.1" id="Capa_1" xmlns="http://www.w3.org/2000/svg" xmlns:xlink="http://www.w3.org/1999/xlink" x="0px" y="0px"
	 viewBox="0 0 20 20" style="enable-background:new 0 0 20 20;" xml:space="preserve">
<g>
	<g>
		<path style="fill:#030104;" d="M8,5.474C8,3.789,5,0,5,0S2,3.789,2,5.474C2,6.869,3.343,8,5,8S8,6.869,8,5.474z"/>
		<path style="fill:#030104;" d="M5,17.475C5,18.869,6.343,20,8,20s3-1.131,3-2.525C11,15.789,8,12,8,12S5,15.789,5,17.475z"/>
		<path style="fill:#030104;" d="M15,4c0,0-3,3.789-3,5.474C12,10.869,13.343,12,15,12s3-1.131,3-2.526C18,7.789,15,4,15,4z"/>
	</g>
</g>
<g>
</g>
<g>
</g>
<g>
</g>
<g>
</g>
<g>
</g>
<g>
</g>
<g>
</g>
<g>
</g>
<g>
</g>
<g>
</g>
<g>
</g>
<g>
</g>
<g>
</g>
<g>
</g>
<g>
</g>
</svg>
